<mxfile host="65bd71144e">
    <diagram id="1-UA0ixmuYhj4r6FxpIM" name="Page-1">
        <mxGraphModel dx="753" dy="247" grid="1" gridSize="10" guides="1" tooltips="1" connect="1" arrows="1" fold="1" page="1" pageScale="1" pageWidth="850" pageHeight="1100" math="0" shadow="0">
            <root>
                <mxCell id="0"/>
                <mxCell id="1" parent="0"/>
                <mxCell id="7" style="edgeStyle=none;html=1;entryX=0;entryY=0.5;entryDx=0;entryDy=0;fontSize=12;" parent="1" source="2" target="3" edge="1">
                    <mxGeometry relative="1" as="geometry"/>
                </mxCell>
                <mxCell id="8" value="a" style="edgeLabel;html=1;align=center;verticalAlign=middle;resizable=0;points=[];fontSize=12;" parent="7" vertex="1" connectable="0">
                    <mxGeometry x="-0.1333" relative="1" as="geometry">
                        <mxPoint as="offset"/>
                    </mxGeometry>
                </mxCell>
                <mxCell id="21" style="edgeStyle=none;curved=1;html=1;exitX=0;exitY=0.5;exitDx=0;exitDy=0;fontSize=12;startArrow=blockThin;startFill=0;endArrow=none;endFill=0;endSize=6;startSize=10;" parent="1" source="2" edge="1">
                    <mxGeometry relative="1" as="geometry">
                        <mxPoint x="180" y="215" as="targetPoint"/>
                    </mxGeometry>
                </mxCell>
                <mxCell id="2" value="s0" style="ellipse;whiteSpace=wrap;html=1;fontSize=12;" parent="1" vertex="1">
                    <mxGeometry x="230" y="190" width="50" height="50" as="geometry"/>
                </mxCell>
                <mxCell id="12" style="edgeStyle=none;curved=1;html=1;entryX=0;entryY=0.5;entryDx=0;entryDy=0;fontSize=12;" parent="1" source="3" target="4" edge="1">
                    <mxGeometry relative="1" as="geometry"/>
                </mxCell>
                <mxCell id="13" value="c" style="edgeLabel;html=1;align=center;verticalAlign=middle;resizable=0;points=[];fontSize=12;" parent="12" vertex="1" connectable="0">
                    <mxGeometry x="-0.2204" relative="1" as="geometry">
                        <mxPoint x="1" y="-1" as="offset"/>
                    </mxGeometry>
                </mxCell>
                <mxCell id="3" value="s1" style="ellipse;whiteSpace=wrap;html=1;fontSize=12;" parent="1" vertex="1">
                    <mxGeometry x="350" y="190" width="50" height="50" as="geometry"/>
                </mxCell>
                <mxCell id="16" style="edgeStyle=none;curved=1;html=1;entryX=0;entryY=0.5;entryDx=0;entryDy=0;fontSize=12;" parent="1" source="4" target="5" edge="1">
                    <mxGeometry relative="1" as="geometry"/>
                </mxCell>
                <mxCell id="18" value="d" style="edgeLabel;html=1;align=center;verticalAlign=middle;resizable=0;points=[];fontSize=12;" parent="16" vertex="1" connectable="0">
                    <mxGeometry x="-0.12" relative="1" as="geometry">
                        <mxPoint as="offset"/>
                    </mxGeometry>
                </mxCell>
                <mxCell id="4" value="s2" style="ellipse;whiteSpace=wrap;html=1;fontSize=12;" parent="1" vertex="1">
                    <mxGeometry x="470" y="190" width="50" height="50" as="geometry"/>
                </mxCell>
                <mxCell id="19" style="edgeStyle=none;curved=1;html=1;entryX=0;entryY=0.5;entryDx=0;entryDy=0;fontSize=12;" parent="1" source="5" target="6" edge="1">
                    <mxGeometry relative="1" as="geometry"/>
                </mxCell>
                <mxCell id="20" value="t" style="edgeLabel;html=1;align=center;verticalAlign=middle;resizable=0;points=[];fontSize=12;" parent="19" vertex="1" connectable="0">
                    <mxGeometry x="-0.1689" relative="1" as="geometry">
                        <mxPoint x="2" y="-1" as="offset"/>
                    </mxGeometry>
                </mxCell>
                <mxCell id="5" value="s3" style="ellipse;whiteSpace=wrap;html=1;fontSize=12;" parent="1" vertex="1">
                    <mxGeometry x="580" y="190" width="50" height="50" as="geometry"/>
                </mxCell>
                <mxCell id="6" value="s4" style="ellipse;whiteSpace=wrap;html=1;fontSize=12;fillColor=none;" parent="1" vertex="1">
                    <mxGeometry x="690" y="190" width="50" height="50" as="geometry"/>
                </mxCell>
                <mxCell id="10" style="edgeStyle=none;curved=1;html=1;exitX=0;exitY=0;exitDx=0;exitDy=0;fontSize=12;entryX=1;entryY=0;entryDx=0;entryDy=0;" parent="1" source="3" target="3" edge="1">
                    <mxGeometry relative="1" as="geometry">
                        <Array as="points">
                            <mxPoint x="350" y="140"/>
                            <mxPoint x="375" y="120"/>
                            <mxPoint x="400" y="140"/>
                        </Array>
                    </mxGeometry>
                </mxCell>
                <mxCell id="11" value="b" style="edgeLabel;html=1;align=center;verticalAlign=middle;resizable=0;points=[];fontSize=12;" parent="10" vertex="1" connectable="0">
                    <mxGeometry x="-0.0677" y="-1" relative="1" as="geometry">
                        <mxPoint x="4" as="offset"/>
                    </mxGeometry>
                </mxCell>
                <mxCell id="14" value="" style="edgeStyle=none;curved=1;html=1;exitX=0;exitY=0;exitDx=0;exitDy=0;fontSize=12;entryX=1;entryY=0;entryDx=0;entryDy=0;" parent="1" edge="1">
                    <mxGeometry x="0.0609" y="17" relative="1" as="geometry">
                        <mxPoint x="477.3223304703348" y="197.3223304703348" as="sourcePoint"/>
                        <mxPoint x="512.6776695296654" y="197.3223304703347" as="targetPoint"/>
                        <Array as="points">
                            <mxPoint x="470" y="140"/>
                            <mxPoint x="495" y="120"/>
                            <mxPoint x="520" y="140"/>
                        </Array>
                        <mxPoint as="offset"/>
                    </mxGeometry>
                </mxCell>
                <mxCell id="15" value="c" style="edgeLabel;html=1;align=center;verticalAlign=middle;resizable=0;points=[];fontSize=12;" parent="14" vertex="1" connectable="0">
                    <mxGeometry x="-0.0677" y="-1" relative="1" as="geometry">
                        <mxPoint x="4" as="offset"/>
                    </mxGeometry>
                </mxCell>
                <mxCell id="24" value="" style="ellipse;whiteSpace=wrap;html=1;fontSize=12;fillColor=none;" parent="1" vertex="1">
                    <mxGeometry x="695" y="195" width="40" height="40" as="geometry"/>
                </mxCell>
            </root>
        </mxGraphModel>
    </diagram>
</mxfile>